HIERARCHY
ROOT hip
{
  OFFSET 0 0 0
  CHANNELS 6 Xposition Yposition Zposition Zrotation Yrotation Xrotation
  JOINT abdomen
  {
    OFFSET 0 20.6881 -0.73152
    CHANNELS 3 Zrotation Xrotation Yrotation
    JOINT chest
    {
      OFFSET 0 11.7043 -0.48768
      CHANNELS 3 Zrotation Xrotation Yrotation
      JOINT neck
      {
        OFFSET 0 22.1894 -2.19456
        CHANNELS 3 Zrotation Xrotation Yrotation
        JOINT head
        {
          OFFSET -0.24384 7.07133 1.2192
          CHANNELS 3 Zrotation Xrotation Yrotation
          JOINT leftEye
          {
            OFFSET 4.14528 8.04674 8.04672
            CHANNELS 3 Zrotation Xrotation Yrotation
            End Site
            {
              OFFSET 1 0 0
            }
          }
          JOINT rightEye
          {
            OFFSET -3.6576 8.04674 8.04672
            CHANNELS 3 Zrotation Xrotation Yrotation
            End Site
            {
              OFFSET 1 0 0
            }
          }
        }
      }
      JOINT rCollar
      {
        OFFSET -2.68224 19.2634 -4.8768
        CHANNELS 3 Zrotation Xrotation Yrotation
        JOINT rShldr
        {
          OFFSET -8.77824 -1.95073 1.46304
          CHANNELS 3 Zrotation Xrotation Yrotation
          JOINT rForeArm
          {
            OFFSET -28.1742 -1.7115 0.48768
            CHANNELS 3 Zrotation Xrotation Yrotation
            JOINT rHand
            {
              OFFSET -22.5879 0.773209 7.07136
              CHANNELS 3 Zrotation Xrotation Yrotation
              JOINT rThumb1
              {
                OFFSET -1.2192 -0.487915 3.41376
                CHANNELS 3 Zrotation Xrotation Yrotation
                JOINT rThumb2
                {
                  OFFSET -3.37035 -0.52449 3.41376
                  CHANNELS 3 Zrotation Xrotation Yrotation
                  End Site
                  {
                    OFFSET -1.78271 -1.18214 1.43049
                  }
                }
              }
              JOINT rIndex1
              {
                OFFSET -7.75947 0.938293 5.60832
                CHANNELS 3 Zrotation Xrotation Yrotation
                JOINT rIndex2
                {
                  OFFSET -2.54057 -0.884171 1.56538
                  CHANNELS 3 Zrotation Xrotation Yrotation
                  End Site
                  {
                    OFFSET -1.62519 -0.234802 1.16502
                  }
                }
              }
              JOINT rMid1
              {
                OFFSET -8.24714 1.18213 3.41376
                CHANNELS 3 Zrotation Xrotation Yrotation
                JOINT rMid2
                {
                  OFFSET -3.10165 -0.590103 1.0647
                  CHANNELS 3 Zrotation Xrotation Yrotation
                  End Site
                  {
                    OFFSET -2.48547 -0.328903 0.83742
                  }
                }
              }
              JOINT rRing1
              {
                OFFSET -8.82822 0.546677 1.51678
                CHANNELS 3 Zrotation Xrotation Yrotation
                JOINT rRing2
                {
                  OFFSET -2.60934 -0.819778 -0.0198488
                  CHANNELS 3 Zrotation Xrotation Yrotation
                  End Site
                  {
                    OFFSET -2.33842 -0.294052 0.168128
                  }
                }
              }
              JOINT rPinky1
              {
                OFFSET -8.27202 -0.0477905 -0.4584
                CHANNELS 3 Zrotation Xrotation Yrotation
                JOINT rPinky2
                {
                  OFFSET -1.82734 -0.647385 -0.700984
                  CHANNELS 3 Zrotation Xrotation Yrotation
                  End Site
                  {
                    OFFSET -1.69225 -0.51767 -0.607171
                  }
                }
              }
            }
          }
        }
      }
      JOINT lCollar
      {
        OFFSET 2.68224 19.2634 -4.8768
        CHANNELS 3 Zrotation Xrotation Yrotation
        JOINT lShldr
        {
          OFFSET 8.77824 -1.95073 1.46304
          CHANNELS 3 Zrotation Xrotation Yrotation
          JOINT lForeArm
          {
            OFFSET 28.1742 -1.7115 0.48768
            CHANNELS 3 Zrotation Xrotation Yrotation
            JOINT lHand
            {
              OFFSET 22.5879 0.773209 7.07136
              CHANNELS 3 Zrotation Xrotation Yrotation
              JOINT lThumb1
              {
                OFFSET 1.2192 -0.487915 3.41376
                CHANNELS 3 Zrotation Xrotation Yrotation
                JOINT lThumb2
                {
                  OFFSET 3.37035 -0.52449 3.41376
                  CHANNELS 3 Zrotation Xrotation Yrotation
                  End Site
                  {
                    OFFSET 1.78271 -1.18214 1.43049
                  }
                }
              }
              JOINT lIndex1
              {
                OFFSET 7.75947 0.938293 5.60832
                CHANNELS 3 Zrotation Xrotation Yrotation
                JOINT lIndex2
                {
                  OFFSET 2.54057 -0.884171 1.56538
                  CHANNELS 3 Zrotation Xrotation Yrotation
                  End Site
                  {
                    OFFSET 1.62519 -0.234802 1.16502
                  }
                }
              }
              JOINT lMid1
              {
                OFFSET 8.24714 1.18213 3.41376
                CHANNELS 3 Zrotation Xrotation Yrotation
                JOINT lMid2
                {
                  OFFSET 3.10165 -0.590103 1.0647
                  CHANNELS 3 Zrotation Xrotation Yrotation
                  End Site
                  {
                    OFFSET 2.48547 -0.328903 0.83742
                  }
                }
              }
              JOINT lRing1
              {
                OFFSET 8.82822 0.546677 1.51678
                CHANNELS 3 Zrotation Xrotation Yrotation
                JOINT lRing2
                {
                  OFFSET 2.60934 -0.819778 -0.0198488
                  CHANNELS 3 Zrotation Xrotation Yrotation
                  End Site
                  {
                    OFFSET 2.33842 -0.294052 0.168128
                  }
                }
              }
              JOINT lPinky1
              {
                OFFSET 8.27202 -0.0477905 -0.4584
                CHANNELS 3 Zrotation Xrotation Yrotation
                JOINT lPinky2
                {
                  OFFSET 1.82734 -0.647385 -0.700984
                  CHANNELS 3 Zrotation Xrotation Yrotation
                  End Site
                  {
                    OFFSET 1.69225 -0.51767 -0.607171
                  }
                }
              }
            }
          }
        }
      }
    }
  }
  JOINT rButtock
  {
    OFFSET -8.77824 4.35084 1.2192
    CHANNELS 3 Zrotation Xrotation Yrotation
    JOINT rThigh
    {
      OFFSET 0 -1.70687 -2.19456
      CHANNELS 3 Zrotation Xrotation Yrotation
      JOINT rShin
      {
        OFFSET 0 -36.8199 0.73152
        CHANNELS 3 Zrotation Xrotation Yrotation
        JOINT rFoot
        {
          OFFSET 0.73152 -45.1104 -5.12064
          CHANNELS 3 Zrotation Xrotation Yrotation
          End Site
          {
            OFFSET -1.1221 -3.69964 12.103
          }
        }
      }
    }
  }
  JOINT lButtock
  {
    OFFSET 8.77824 4.35084 1.2192
    CHANNELS 3 Zrotation Xrotation Yrotation
    JOINT lThigh
    {
      OFFSET 0 -1.70687 -2.19456
      CHANNELS 3 Zrotation Xrotation Yrotation
      JOINT lShin
      {
        OFFSET 0 -36.8199 0.73152
        CHANNELS 3 Zrotation Xrotation Yrotation
        JOINT lFoot
        {
          OFFSET -0.73152 -45.1104 -5.12064
          CHANNELS 3 Zrotation Xrotation Yrotation
          End Site
          {
            OFFSET 1.1221 -3.69964 12.103
          }
        }
      }
    }
  }
}
MOTION
Frames:	4
Frame Time:	0.03333
0.4802999884120293 65.36320280972953 28.657099638396257 5.617100715637207 -9.226800918579102 -2.0064001083374023 5.767769813537598 16.244901657104492 -8.490079879760742 1.3101401329040527 -9.758089065551758 -2.0500099658966064 -4.835179805755615 12.263899803161621 2.9615395069122314 1.400099754333496 -26.222599029541016 6.53986930847168 -0.0 0.0 -0.0 -0.0 0.0 -0.0 1.8851998954960703e-13 1.3742198839376135e-13 1.210879947742896e-13 53.59419631958008 24.855600357055664 -12.991199493408203 -27.85799789428711 -29.824604034423828 66.96959686279297 -0.0020668001379817724 1.56069016456604 0.21939098834991455 -2.5905399787112815e-12 6.182880318839068e-10 -1.6361899612959974e-09 -8.57957888761307e-12 1.0845500053591195e-09 -2.8276199159904536e-09 -2.5866002048569037e-12 6.182940270882398e-10 -1.6361899612959974e-09 7.730909824371338 5.474879741668701 0.4173140823841095 -2.5922599570377125e-12 6.182899747741999e-10 -1.6361899612959974e-09 2.9055399894714355 0.9651829600334167 0.10290199518203735 -2.579740024030719e-12 6.182889755734777e-10 -1.6361899612959974e-09 10.27859878540039 0.73180091381073 0.025912316516041756 -2.5922599570377125e-12 6.182899747741999e-10 -1.6361798582664733e-09 2.221669912338257 -0.733487069606781 -0.208919957280159 1.8826998608115902e-13 1.37395994646676e-13 1.2082700020631804e-13 -47.25699996948242 15.243303298950195 -24.418195724487305 28.438499450683594 -35.26720428466797 -75.74800109863281 0.7785779237747192 -24.19890022277832 3.6220598220825195 -1.1216699791205542e-09 3.745249887998625e-09 -1.6607999420159558e-09 -1.905259949808169e-09 6.359570203784415e-09 -2.8932098938838635e-09 -1.1216699791205542e-09 3.745249887998625e-09 -1.6607900610310367e-09 -7.730909824371338 5.474879741668701 -0.4173140823841095 -1.1216599871133326e-09 3.745249887998625e-09 -1.6608099340231774e-09 -2.9055399894714355 0.9651829600334167 -0.10290199518203735 -1.1216699791205542e-09 3.745249887998625e-09 -1.6608099340231774e-09 -10.27859878540039 0.73180091381073 -0.025912316516041756 -1.1216599871133326e-09 3.745249887998625e-09 -1.6608099340231774e-09 -2.221669912338257 -0.733487069606781 0.208919957280159 -2.0321699480147914e-16 0.0 -3.8825099822884138e-19 -3.624920129776001 -41.31589889526367 -4.489539623260498 -1.2021300792694092 62.706199645996094 1.882929801940918 -2.2477097511291504 -14.417801856994629 -6.599919319152832 2.0321699480147914e-16 0.0 3.8825099822884138e-19 24.97850227355957 -50.832096099853516 21.054100036621094 176.49099731445312 68.27811431884766 -178.3099822998047 2.4506702423095703 -13.199999809265137 9.634490013122559
0.7296999970455343 66.57899697255931 31.28489966211642 6.864199638366699 -13.840398788452148 -5.1514997482299805 5.5618510246276855 18.834701538085938 -6.822840213775635 0.37241196632385254 -9.411849975585938 -1.6508700847625732 -4.802289962768555 12.510199546813965 3.4983599185943604 0.8859119415283203 -26.203201293945312 7.4599504470825195 -0.0 0.0 -0.0 -0.0 0.0 -0.0 2.565550040207337e-13 8.946959655347503e-14 2.3864097547024454e-13 51.62070083618164 25.32220458984375 -11.106598854064941 -27.85770034790039 -29.822101593017578 66.96499633789062 -0.011036199517548084 2.9980103969573975 0.42173197865486145 1.0515699422342095e-09 -2.486270078705388e-09 -3.6231999622771127e-09 1.8109399535504167e-09 -4.273679632404992e-09 -6.261019702691328e-09 1.0515699422342095e-09 -2.486270078705388e-09 -3.6232097322397294e-09 7.730909824371338 5.474879741668701 0.4173140823841095 1.0515599502269879e-09 -2.486270078705388e-09 -3.6231999622771127e-09 2.9055399894714355 0.9651829600334167 0.10290199518203735 1.0515799342414311e-09 -2.486270078705388e-09 -3.623189970269891e-09 10.27859878540039 0.73180091381073 0.025912316516041756 1.0515699422342095e-09 -2.4862598646535616e-09 -3.623189970269891e-09 2.221669912338257 -0.733487069606781 -0.208919957280159 2.5637600224205637e-13 8.943519346328935e-14 2.3844197016148483e-13 -47.91389846801758 13.2568998336792 -21.228797912597656 28.372400283813477 -33.79850387573242 -73.37020111083984 0.7466760277748108 -23.763700485229492 3.5477099418640137 -1.2344799626973213e-09 5.023159665995536e-09 -1.0729300781164852e-10 -2.125279952025494e-09 8.649659655191044e-09 -2.118339947898562e-10 -1.2344799626973213e-09 5.023159665995536e-09 -1.0728998939280032e-10 -7.730909824371338 5.474879741668701 -0.4173140823841095 -1.2344699706900997e-09 5.023159665995536e-09 -1.0729300781164852e-10 -2.9055399894714355 0.9651829600334167 -0.10290199518203735 -1.2344799626973213e-09 5.023159665995536e-09 -1.0729499927419894e-10 -10.27859878540039 0.73180091381073 -0.025912316516041756 -1.2344699706900997e-09 5.023159665995536e-09 -1.0730200061814799e-10 -2.221669912338257 -0.733487069606781 0.208919957280159 -2.0321699480147914e-16 0.0 -3.8825099822884138e-19 -3.1724300384521484 -36.277103424072266 -1.6691001653671265 -1.0554300546646118 60.7816162109375 1.7828699350357056 -1.3636300563812256 -15.38869857788086 -4.368990421295166 2.0321699480147914e-16 0.0 3.8825099822884138e-19 35.337303161621094 -56.15129852294922 29.00480079650879 176.6949920654297 66.3877944946289 -178.5579833984375 1.6285899877548218 -12.993301391601562 7.129149913787842
1.1435999891969189 67.9885977530882 33.8717996593129 9.27649974822998 -19.136701583862305 -8.932300567626953 4.152889728546143 21.885398864746094 -4.517989158630371 -0.8280969858169556 -9.099241256713867 -1.1501799821853638 -4.566710472106934 12.654000282287598 4.041750431060791 0.13414500653743744 -26.290498733520508 8.336339950561523 -0.0 0.0 -0.0 -0.0 0.0 -0.0 1.6528599777916597e-13 8.439559306668096e-15 9.951969668275593e-14 49.22440719604492 25.947498321533203 -7.791528701782227 -27.827795028686523 -29.667701721191406 66.71649932861328 -0.023207999765872955 4.443079948425293 0.625594973564148 9.090230235209162e-10 -2.4365198747489103e-09 -1.7062901092046445e-09 1.5688799148705357e-09 -4.204129933071954e-09 -2.9491700193062798e-09 9.090249664112093e-10 -2.4365101047862936e-09 -1.7062999901895637e-09 7.730909824371338 5.474879741668701 0.4173140823841095 9.090189712068764e-10 -2.4365101047862936e-09 -1.7062901092046445e-09 2.9055399894714355 0.9651829600334167 0.10290199518203735 9.0903401472886e-10 -2.4365198747489103e-09 -1.7062901092046445e-09 10.27859878540039 0.73180091381073 0.025912316516041756 9.090220243201941e-10 -2.4365198747489103e-09 -1.706279895152818e-09 2.221669912338257 -0.733487069606781 -0.208919957280159 1.6519198389828432e-13 8.406619042382324e-15 9.932090143816713e-14 -48.33989715576172 11.062200546264648 -17.859397888183594 28.251798629760742 -32.4364013671875 -71.17080688476562 0.7222060561180115 -23.392000198364258 3.4855902194976807 -2.1130899807708658e-10 -6.974339994414436e-10 1.354529932662274e-09 -3.8516198563876003e-10 -1.1047200931812995e-09 2.3335600118912225e-09 -2.113139802029096e-10 -6.974369415324588e-10 1.3545399246694956e-09 -7.730909824371338 5.474879741668701 -0.4173140823841095 -2.1130699967564226e-10 -6.974339994414436e-10 1.354529932662274e-09 -2.9055399894714355 0.9651829600334167 -0.10290199518203735 -2.1131799088358605e-10 -6.974339994414436e-10 1.354529932662274e-09 -10.27859878540039 0.73180091381073 -0.025912316516041756 -2.1130597271934448e-10 -6.97431945528848e-10 1.3545200516773548e-09 -2.221669912338257 -0.733487069606781 0.208919957280159 -2.0321699480147914e-16 0.0 -3.8825099822884138e-19 -3.72221040725708 -31.267602920532227 1.9278901815414429 -0.9122580885887146 58.63880157470703 1.6763800382614136 -0.1443750113248825 -16.105602264404297 -1.3589500188827515 2.0321699480147914e-16 0.0 3.8825099822884138e-19 48.56059646606445 -58.96220779418945 39.18589401245117 176.906982421875 64.60139465332031 -178.97998046875 0.8386399745941162 -11.866899490356445 5.7238593101501465
1.749299990854886 69.51610125906984 36.60529963520336 12.800299644470215 -24.56089973449707 -13.23740291595459 2.0307302474975586 25.088001251220703 -1.7791701555252075 -2.063429594039917 -8.889150619506836 -0.5882889032363892 -4.305000305175781 12.759500503540039 4.560239791870117 -0.7263550162315369 -26.33489990234375 9.141129493713379 -0.0 0.0 -0.0 -0.0 0.0 -0.0 7.930819629492492e-14 -2.741989815269793e-14 -9.844809836052557e-14 46.296295166015625 26.597396850585938 -3.583059549331665 -27.79010009765625 -29.480897903442383 66.42109680175781 -0.03791799396276474 5.549290657043457 0.7823739647865295 6.509919825425925e-10 -2.0087600471896394e-09 5.36908961734639e-10 1.1274799982530226e-09 -3.4827898343081642e-09 9.251460153514302e-10 6.50994980144759e-10 -2.0087398411305912e-09 5.36896971325973e-10 7.730909824371338 5.474879741668701 0.4173140823841095 6.50988984940426e-10 -2.0087500551824178e-09 5.36902966530306e-10 2.9055399894714355 0.9651829600334167 0.10290199518203735 6.510029737505363e-10 -2.0087500551824178e-09 5.36908961734639e-10 10.27859878540039 0.73180091381073 0.025912316516041756 6.509879857397038e-10 -2.0087500551824178e-09 5.369189537418606e-10 2.221669912338257 -0.733487069606781 -0.208919957280159 7.927759468860651e-14 -2.7445097382878744e-14 -9.864690038137794e-14 -48.72489929199219 8.79740047454834 -14.549099922180176 28.07490348815918 -31.07889747619629 -68.97379302978516 0.6932550072669983 -22.9573974609375 3.412989616394043 6.880849223733776e-10 -6.078079817228854e-09 2.388189868085533e-09 1.1482098605242186e-09 -1.0279800122248162e-08 4.137030273909659e-09 6.880819802823623e-10 -6.078079817228854e-09 2.388209852099976e-09 -7.730909824371338 5.474879741668701 -0.4173140823841095 6.88085977085251e-10 -6.078079817228854e-09 2.3881998600927545e-09 -2.9055399894714355 0.9651829600334167 -0.10290199518203735 6.880729874758629e-10 -6.078079817228854e-09 2.3881998600927545e-09 -10.27859878540039 0.73180091381073 -0.025912316516041756 6.880889746874175e-10 -6.078079817228854e-09 2.3881998600927545e-09 -2.221669912338257 -0.733487069606781 0.208919957280159 -2.0321699480147914e-16 0.0 -3.8825099822884138e-19 -5.7003703117370605 -26.618701934814453 4.892040729522705 -0.7851369976997375 56.498207092285156 1.638409972190857 1.0331099033355713 -16.317399978637695 1.2542998790740967 2.0321699480147914e-16 0.0 3.8825099822884138e-19 63.32460021972656 -59.541107177734375 50.14169692993164 177.07199096679688 63.11639404296875 -179.4139862060547 0.08159779757261276 -10.651200294494629 4.666600704193115
